<svg preserveAspectRatio="none" width="100%" height="100%" overflow="visible" style="display: block;" viewBox="0 0 28 28" fill="none" xmlns="http://www.w3.org/2000/svg">
<g id="icon">
<rect width="28" height="28" rx="14" fill="var(--fill-0, white)"/>
<path id="iconGlyph" d="M15.3532 7.67929L15.1155 16.4198H12.8846L12.6408 7.67929H15.3532ZM14 20.3207C13.5978 20.3207 13.2524 20.1785 12.9639 19.894C12.6754 19.6055 12.5331 19.2601 12.5372 18.8579C12.5331 18.4596 12.6754 18.1183 12.9639 17.8339C13.2524 17.5494 13.5978 17.4072 14 17.4072C14.3861 17.4072 14.7254 17.5494 15.0179 17.8339C15.3105 18.1183 15.4588 18.4596 15.4629 18.8579C15.4588 19.1261 15.3877 19.3719 15.2496 19.5954C15.1155 19.8148 14.9387 19.9916 14.7193 20.1257C14.4998 20.2557 14.2601 20.3207 14 20.3207Z" fill="var(--fill-0, #92400E)"/>
</g>
</svg>
